<svg width="24" height="46" viewBox="0 0 24 46" fill="none" xmlns="http://www.w3.org/2000/svg">
<g filter="url(#filter0_d_279_4697)">
<path d="M18.5682 41.4628C18.3133 41.5387 18.0501 41.5643 17.7902 41.5982C17.5441 41.6285 17.2977 41.6532 17.0487 41.6809C16.7581 41.7193 16.4704 41.7603 16.183 41.807C15.6052 41.8976 15.0291 41.915 14.4449 41.8878C14.1149 41.8749 13.7812 41.848 13.4512 41.8351C13.1214 41.8278 12.7917 41.8204 12.4649 41.8158C11.6571 41.8176 10.8487 41.8083 10.0397 41.7877C9.61713 41.7826 9.19197 41.7805 8.7721 41.7725C8.75791 41.7704 8.74104 41.7714 8.7242 41.7723C8.72124 41.7696 8.7186 41.7726 8.71299 41.7729C8.2231 41.7715 7.72885 41.7928 7.23632 41.7944C6.86197 41.7951 6.48789 41.8015 6.11558 41.7881C5.63601 41.7692 4.96048 41.7188 4.86625 41.1272C4.84114 40.9765 4.86124 40.8291 4.92155 40.6963C4.73856 40.6443 4.58151 40.5516 4.47127 40.3887C4.37288 40.2364 4.33999 40.0468 4.37509 39.8647C4.42162 39.6342 4.59938 39.4359 4.81961 39.345C4.87727 39.2152 4.92932 39.0857 4.98698 38.9559C5.12107 38.6277 5.24627 38.2915 5.50548 38.038C5.63376 37.9128 5.7742 37.8038 5.90575 37.6868C5.9084 37.6839 5.91106 37.6809 5.91372 37.6779C6.06505 37.4079 6.19597 37.1249 6.34731 36.8548C6.51926 36.5499 6.70072 36.2641 6.9286 36.0039C7.04269 35.8766 7.15383 35.7467 7.26497 35.6168C7.33569 35.52 7.40342 35.4206 7.46557 35.3215C7.68345 34.9296 7.90726 34.543 8.14228 34.1558C8.21616 34.0138 8.2874 33.8748 8.35271 33.7305C8.45414 33.4744 8.55261 33.2157 8.68272 32.9693C8.8511 32.6505 9.0952 32.3782 9.34258 32.1141C9.61118 31.8264 9.88898 31.5523 10.1786 31.2887C10.4414 31.0492 10.7281 30.8365 11.0123 30.6268C11.2262 30.4715 11.4377 30.3249 11.7125 30.3042C11.9311 30.2867 12.1337 30.3882 12.2959 30.5229C12.3844 30.5969 12.4484 30.6863 12.5153 30.7783C12.6036 30.9002 12.6863 31.0223 12.7746 31.1442C12.9823 31.4425 13.1844 31.7411 13.3868 32.0453C13.5773 32.3389 13.754 32.6362 13.9528 32.9265C14.1579 33.2278 14.3712 33.5257 14.5762 33.827C14.9766 34.4047 15.358 34.9976 15.7338 35.5907C15.9397 35.9089 16.1457 36.227 16.3514 36.5394C16.5321 36.8083 16.7265 37.0679 16.9155 37.3334C17.5601 38.1568 18.2125 38.9713 18.822 39.8219C19.0018 40.0739 19.138 40.3508 19.1492 40.6598C19.1582 40.8761 19.0792 41.0774 18.9412 41.2313C18.8401 41.3382 18.7149 41.4182 18.5682 41.4628ZM10.0588 40.3849L10.0644 40.3845L10.0673 40.3872C10.4955 40.392 10.9239 40.4023 11.3494 40.4101C11.8898 40.4087 12.4332 40.41 12.9715 40.4228C13.6224 40.4352 14.2726 40.4841 14.9208 40.4994C15.1235 40.4996 15.3286 40.4912 15.5303 40.4746C15.8461 40.432 16.1586 40.3811 16.4744 40.3385C16.7763 40.2995 17.0811 40.2632 17.3833 40.2298C17.362 40.2 17.3377 40.1676 17.3163 40.1378C16.8459 39.5132 16.3566 38.9037 15.8782 38.288C15.4241 37.7048 15.0184 37.0795 14.6186 36.4595C14.2061 35.8121 13.7909 35.1676 13.3568 34.5382C13.155 34.2452 12.9476 33.9525 12.7458 33.6595C12.547 33.3692 12.367 33.0637 12.1735 32.7675C11.9922 32.4874 11.8081 32.2104 11.6158 31.9365C11.3028 32.1845 11.0043 32.44 10.7153 32.7148C10.4968 32.9406 10.2727 33.1668 10.072 33.4086C10.0354 33.4613 9.99891 33.5139 9.95973 33.5696C9.90819 33.6568 9.86784 33.7435 9.82784 33.8358C9.71345 34.1122 9.61621 34.3934 9.47283 34.6546C9.34506 34.8924 9.20019 35.1255 9.05528 35.3586C8.89598 35.6375 8.7482 35.9214 8.58033 36.198C8.38388 36.5184 8.11404 36.7837 7.87616 37.0669C7.81309 37.1492 7.75593 37.2368 7.69878 37.3243C7.49121 37.6988 7.30702 38.0889 7.08761 38.4527C6.94535 38.6829 6.71961 38.8275 6.52407 39.0099C6.51081 39.0247 6.49757 39.0395 6.4843 39.0543C6.47665 39.0687 6.46604 39.0806 6.45839 39.0951C6.44339 39.1297 6.42277 39.1646 6.41073 39.2019C6.42042 39.1732 6.43306 39.1472 6.44306 39.1241C6.29898 39.4754 6.14601 39.8187 5.99039 40.165C5.95743 40.2315 5.92742 40.3008 5.88588 40.365C6.09541 40.3873 6.30994 40.3981 6.5212 40.4006C6.86718 40.3958 7.21081 40.3996 7.55678 40.3948C7.94767 40.3875 8.34091 40.3717 8.72679 40.3759C8.72118 40.3762 8.71555 40.3765 8.70994 40.3769C9.15461 40.3751 9.60521 40.3787 10.0588 40.3849Z" fill="#F6E7C6"/>
<path d="M8.76085 41.7731C8.76381 41.7757 8.76381 41.7757 8.76085 41.7731Z" fill="#F6E7C6"/>
<path d="M10.0812 40.3836C10.0839 40.3807 10.0868 40.3833 10.0924 40.383C10.0981 40.3827 10.101 40.3853 10.1037 40.3824C10.0954 40.3856 10.0868 40.3833 10.0812 40.3836Z" fill="#F6E7C6"/>
<path d="M10.07 40.3842C10.07 40.3842 10.0756 40.3839 10.0812 40.3836C10.0812 40.3836 10.0756 40.3839 10.07 40.3842Z" fill="#F6E7C6"/>
<path d="M10.0558 40.3822C10.0614 40.3819 10.0614 40.3819 10.0614 40.3819C10.0587 40.3849 10.0558 40.3822 10.0558 40.3822Z" fill="#F6E7C6"/>
<path d="M19.4335 27.2535C19.4001 27.2609 19.3697 27.2711 19.3363 27.2785C19.1911 27.3512 19.0239 27.3828 18.8487 27.3699C18.6028 27.3523 18.3587 27.315 18.1146 27.2776C17.652 27.21 17.1962 27.111 16.7331 27.0321C16.6737 27.0269 16.6087 27.0221 16.5437 27.0172C16.1445 27.0277 15.7472 27.0719 15.3483 27.0881C14.896 27.1043 14.4419 27.0869 13.9877 27.0695C13.1414 27.0369 12.2966 26.9788 11.448 26.9548C11.2093 26.965 10.9706 26.9752 10.7345 26.9824C10.4789 26.9936 10.2169 27.0417 9.9623 27.0697C9.99037 27.0681 10.0211 27.0636 10.0518 27.0592C9.5745 27.1331 9.09419 27.2043 8.61391 27.2756C8.04147 27.3603 7.45535 27.4008 6.89363 27.5272C6.86587 27.5343 6.83547 27.5444 6.80506 27.5545C6.59177 27.721 6.30496 27.7789 6.04971 27.6408C5.86396 27.5383 5.73658 27.3708 5.68686 27.1821C5.46497 26.8817 5.52745 26.4786 5.79789 26.2245C5.81116 26.2097 5.8247 26.2006 5.83797 26.1858C6.12607 25.8942 6.40856 25.6029 6.67889 25.2953C6.96474 24.911 7.22425 24.5083 7.50979 24.1184C7.64358 23.9393 7.76553 23.7497 7.88779 23.5657C8.03362 23.3494 8.18833 23.1411 8.35162 22.9352C8.46449 22.7854 8.5747 22.6387 8.67573 22.4783C8.75788 22.3331 8.82288 22.1832 8.89349 22.0329C8.8838 22.0616 8.87114 22.0876 8.85879 22.1193C9.00288 21.768 9.1443 21.4197 9.29135 21.071C9.31135 21.0249 9.33135 20.9788 9.354 20.9297C9.34869 20.9356 9.34637 20.9441 9.34668 20.9498C9.38433 20.8661 9.41905 20.7797 9.45374 20.6934C9.44405 20.722 9.43135 20.7481 9.41901 20.7797C9.4787 20.6357 9.53841 20.4917 9.59811 20.3477C9.58841 20.3764 9.57575 20.4024 9.56341 20.434C9.71015 20.0798 9.88323 19.7438 10.1024 19.4278C10.2901 19.153 10.5192 18.9153 10.7539 18.6772C10.9542 18.4777 11.1574 18.2808 11.3579 18.0869C11.4219 18.0215 11.4829 17.9534 11.541 17.8827C11.6704 17.7264 11.8593 17.6289 12.064 17.6149C12.3278 17.6005 12.5577 17.7371 12.707 17.9457C12.7254 17.9728 12.7467 18.0026 12.7651 18.0298C12.8669 18.1425 12.9558 18.2755 13.0468 18.3944C13.3584 18.7912 13.6753 19.1821 13.9789 19.5878C13.9606 19.5606 13.9425 19.539 13.9241 19.5119C14.2784 19.9683 14.6751 20.3773 15.0559 20.8041C15.4729 21.274 15.8494 21.777 16.2232 22.283C16.5109 22.653 16.8121 23.0137 17.1401 23.3505C17.1312 23.3425 17.1223 23.3346 17.1134 23.3266C17.1253 23.3372 17.1371 23.3478 17.1434 23.3588C17.1552 23.3694 17.17 23.3826 17.1762 23.3936C17.1703 23.3882 17.1614 23.3803 17.1582 23.372C17.5066 23.7218 17.871 24.0537 18.2436 24.3824C18.4242 24.5443 18.6103 24.7058 18.7935 24.8647C18.909 24.9682 19.0214 25.0691 19.1395 25.1696C19.2753 25.286 19.4082 25.3998 19.5063 25.5465C19.5552 25.617 19.5879 25.6996 19.6007 25.7806C19.8016 26.0567 19.9928 26.3616 19.9164 26.7148C19.8921 26.8372 19.8312 26.9587 19.7436 27.0564C19.6534 27.157 19.5501 27.2246 19.4335 27.2535ZM10.458 21.9194C10.3239 22.2476 10.1902 22.5814 10.0416 22.902C9.86302 23.2918 9.59982 23.6271 9.33367 23.9597C9.12947 24.2411 8.94271 24.5327 8.74412 24.8138C8.55084 25.089 8.34899 25.3618 8.15866 25.6396C8.08559 25.745 8.0155 25.8529 7.94212 25.9526C8.14889 25.9245 8.35563 25.8963 8.5624 25.8681C8.92542 25.8145 9.28845 25.7609 9.64851 25.7046C9.98346 25.6526 10.3223 25.62 10.6552 25.5821C10.8398 25.5608 11.0372 25.5669 11.2254 25.5594C11.3912 25.5532 11.5572 25.5526 11.7236 25.5576C12.0731 25.5666 12.4229 25.5813 12.7758 25.5987C13.4421 25.6355 14.1111 25.6693 14.7819 25.6833C15.1027 25.6827 15.4233 25.6765 15.7459 25.6561C16.0629 25.6359 16.3737 25.6049 16.6895 25.6158C17.0252 25.6284 17.3563 25.7117 17.6808 25.7784C17.6512 25.7519 17.6216 25.7254 17.592 25.6988C17.3375 25.4706 17.0773 25.2428 16.8281 25.0086C16.3802 24.5911 15.9436 24.173 15.5465 23.7049C15.2429 23.3527 14.9715 22.9706 14.6978 22.5971C14.5405 22.3974 14.3912 22.1888 14.2233 22.0009C14.0311 21.7806 13.8333 21.5606 13.6302 21.3464C13.2953 20.9875 12.985 20.6132 12.6875 20.2184C12.6935 20.2237 12.6967 20.232 12.6997 20.2347C12.4814 19.9482 12.2524 19.6736 12.0285 19.3874C12.0232 19.3933 12.0205 19.3963 12.0152 19.4022C12.0099 19.4081 12.0019 19.417 11.9966 19.4229C11.9993 19.42 12.002 19.417 12.0073 19.4111C11.7722 19.6435 11.5372 19.8759 11.3285 20.1265C11.2604 20.2203 11.1953 20.3168 11.1332 20.4159C11.0384 20.5872 10.9521 20.7608 10.8692 20.9427C10.8295 21.0405 10.7868 21.1357 10.7468 21.228C10.7468 21.228 10.7495 21.225 10.7521 21.2221C10.7471 21.2336 10.7395 21.2481 10.7374 21.2623C10.7348 21.2652 10.7351 21.2709 10.7298 21.2768C10.7274 21.2854 10.7224 21.2969 10.7174 21.3084C10.7201 21.3054 10.7198 21.2998 10.7224 21.2969C10.7178 21.314 10.7101 21.3285 10.7054 21.3457C10.6657 21.4436 10.6207 21.5473 10.581 21.6452C10.5937 21.6192 10.6034 21.5905 10.6187 21.5615C10.5607 21.6857 10.5107 21.8011 10.458 21.9194Z" fill="#F6E7C6"/>
<path d="M10.7001 21.3516C10.6978 21.3602 10.6954 21.3687 10.6901 21.3747C10.6924 21.3661 10.6978 21.3602 10.7001 21.3516Z" fill="#F6E7C6"/>
<path d="M19.0633 14.1841C18.9009 14.3534 18.6596 14.4201 18.4307 14.4551C17.8892 14.5409 17.3457 14.5875 16.803 14.6509C16.2578 14.7173 15.713 14.7414 15.1661 14.7797C14.6081 14.8186 14.0509 14.8743 13.4938 14.9301C13.5245 14.9256 13.5526 14.9241 13.5833 14.9196C12.7054 15.0294 11.8347 15.1671 10.9684 15.3354C10.4725 15.43 9.97987 15.533 9.48427 15.6332C9.02206 15.726 8.55861 15.7963 8.08802 15.8389C7.79675 15.8661 7.50098 15.8625 7.20879 15.8729C7.15358 15.8928 7.09244 15.9074 7.02804 15.9137C6.85433 15.9288 6.69269 15.9067 6.53123 15.8367C6.27189 15.727 6.12297 15.4226 6.14225 15.157C6.14826 15.0609 6.17438 14.9722 6.21531 14.8968C6.10059 14.8581 5.98995 14.7909 5.90259 14.6859C5.67396 14.4169 5.67719 13.9607 5.94825 13.7178C6.03428 13.5921 6.11174 13.464 6.19511 13.3412C6.33564 13.1309 6.49392 12.9365 6.64036 12.7314C6.7765 12.5438 6.90079 12.3456 7.01947 12.1477C7.14081 11.9469 7.27399 11.7566 7.4039 11.5581C7.63178 11.1431 7.80495 10.7058 8.0068 10.2782C8.23661 9.79551 8.48091 9.32051 8.71368 8.84051C8.9438 8.36348 9.17095 7.88381 9.38954 7.40178C9.55781 7.02946 9.73498 6.66507 9.94111 6.31602C10.1782 5.91461 10.488 5.55708 10.7396 5.16332C10.7549 5.13434 10.7702 5.10537 10.7825 5.07373C10.7822 5.06812 10.7848 5.06518 10.7819 5.06253C10.8233 4.79003 10.9481 4.54956 11.2144 4.42524C11.475 4.30122 11.7597 4.35889 12.0034 4.49196C12.3344 4.67657 12.5699 4.9677 12.8186 5.24406C13.1692 5.63309 13.4602 6.06479 13.7462 6.50802C14.0318 6.94563 14.3258 7.37996 14.636 7.80216C14.7447 7.93698 14.8587 8.06588 14.9753 8.19181C15.2942 8.51501 15.624 8.83198 15.9266 9.16733C16.2325 9.51094 16.5168 9.87264 16.8012 10.2343C17.1066 10.6202 17.4037 11.0093 17.709 11.3952C17.9694 11.73 18.254 12.0438 18.5359 12.3606C18.6431 12.4673 18.7473 12.5714 18.8568 12.6696C19.0465 12.845 19.267 13.016 19.3729 13.2551C19.4916 13.5217 19.4349 13.8232 19.2518 14.0274C19.2076 14.0946 19.1401 14.1461 19.0633 14.1841ZM11.6949 6.26533C11.4827 6.55559 11.2732 6.84289 11.0844 7.14877C10.8642 7.54926 10.6845 7.97007 10.4962 8.38852C10.3606 8.68868 10.2164 8.9865 10.0722 9.28432C9.7482 9.94945 9.40113 10.6046 9.10316 11.2824C8.96784 11.5881 8.84113 11.8962 8.67122 12.187C8.49926 12.492 8.29207 12.7707 8.10859 13.0707C7.91714 13.3795 7.69907 13.6645 7.48425 13.9577C7.39261 14.0838 7.30687 14.2151 7.22084 14.3409C7.19227 14.3846 7.16107 14.4314 7.13545 14.4778C7.18332 14.478 7.23118 14.4782 7.27609 14.4757C7.59104 14.4698 7.90802 14.4497 8.22706 14.4154C9.18589 14.2927 10.128 14.0695 11.0722 13.8857C11.8076 13.7442 12.5535 13.6387 13.2943 13.5448C14.0183 13.4518 14.7501 13.3977 15.4768 13.3552C16.1138 13.3176 16.7462 13.2493 17.3787 13.181C17.2919 13.0873 17.2078 12.9905 17.1211 12.8967C16.8066 12.5507 16.524 12.1693 16.2364 11.7993C15.949 11.435 15.6673 11.0703 15.38 10.706C15.1078 10.3606 14.8171 10.0358 14.5157 9.72293C14.2776 9.4882 14.0367 9.25081 13.8093 9.00425C13.5875 8.75738 13.3925 8.48655 13.2032 8.21539C13.0231 7.95781 12.84 7.69755 12.6707 7.43373C12.4986 7.16727 12.332 6.90049 12.1492 6.64586C12.025 6.48656 11.8983 6.33023 11.7659 6.17419C11.7447 6.19786 11.7184 6.23308 11.6949 6.26533Z" fill="#F6E7C6"/>
<path d="M10.5017 39.6288C10.2002 39.8817 9.76664 39.8294 9.50903 39.545C9.31153 39.3306 9.11434 39.1218 8.9142 38.9103C8.88164 38.8811 8.84879 38.8463 8.81888 38.8142C8.74407 38.7845 8.67128 38.7407 8.60616 38.6823C8.48185 38.5708 8.37816 38.4245 8.33294 38.2665C8.25801 38.0285 8.31128 37.7666 8.47844 37.5801C8.65622 37.3818 8.97454 37.2828 9.23061 37.3842C9.59609 37.5304 9.8588 37.8566 10.1247 38.1377C10.2772 38.3011 10.4296 38.4645 10.5795 38.6308C10.816 38.891 10.7882 39.3091 10.5627 39.5607C10.5444 39.587 10.5232 39.6107 10.5017 39.6288Z" fill="#F6E7C6"/>
<path d="M12.7446 39.1038C12.3968 38.7652 12.0888 38.3823 11.7761 38.0166C11.4781 37.6641 11.2068 37.282 10.933 36.9085C10.9514 36.9356 10.9694 36.9572 10.9878 36.9843C10.8936 36.8571 10.8017 36.7214 10.7102 36.5913C10.5606 36.3771 10.4053 36.1632 10.302 35.9211C10.218 35.723 10.2117 35.5038 10.3079 35.3071C10.4171 35.09 10.6499 34.9197 10.8975 34.9174C11.0916 34.9153 11.2663 34.9705 11.4113 35.1005C11.5001 35.1801 11.5648 35.2807 11.6043 35.3855C11.7564 35.6446 11.9359 35.891 12.1068 36.135C12.2404 36.3135 12.374 36.492 12.502 36.6708C12.4866 36.6463 12.4683 36.6191 12.4472 36.595C12.8178 37.0927 13.2315 37.5543 13.6452 38.0159C13.66 38.0291 13.6718 38.0397 13.6839 38.056C13.9575 38.3225 14.0035 38.7535 13.7382 39.0495C13.4914 39.3248 13.0211 39.373 12.7446 39.1038Z" fill="#F6E7C6"/>
<path d="M12.1068 36.135C12.1068 36.135 12.1098 36.1377 12.1128 36.1403C12.1072 36.1406 12.1098 36.1377 12.1068 36.135Z" fill="#F6E7C6"/>
<path d="M10.8775 25.0126C10.813 24.9655 10.7429 24.9186 10.6757 24.8744C10.4961 24.8842 10.3128 24.8267 10.1707 24.6993C9.88656 24.4446 9.86173 23.9899 10.1165 23.7058C10.2863 23.5164 10.5162 23.3968 10.7763 23.4164C11.1125 23.4403 11.3948 23.6613 11.6641 23.8493C11.9801 24.0685 12.0687 24.5056 11.8498 24.8272C11.8341 24.8506 11.8159 24.8769 11.7947 24.9006C11.5691 25.1522 11.1671 25.2136 10.8775 25.0126Z" fill="#F6E7C6"/>
<path d="M15.0079 25.2347C14.712 25.4873 14.2676 25.4412 14.0126 25.1539C13.7724 24.8799 13.527 24.6118 13.2815 24.3437C13.0314 24.0927 12.7759 23.8477 12.5045 23.6205C12.3196 23.6362 12.1277 23.5763 11.9797 23.4436C11.8317 23.3109 11.6958 23.141 11.6212 22.9621C11.4372 22.5302 11.6771 22.078 12.1302 21.9716C12.3664 21.9165 12.6082 21.9624 12.8153 22.0947C13.0372 22.2402 13.257 22.3999 13.4609 22.5774C13.6415 22.7392 13.8244 22.8925 13.9943 23.0662C14.3727 23.4481 14.7404 23.8418 15.0919 24.2477C15.3232 24.5137 15.3033 24.923 15.0751 25.1775C15.0536 25.1956 15.0324 25.2193 15.0079 25.2347Z" fill="#F6E7C6"/>
<path d="M9.97035 13.2449C9.86971 13.1547 9.77175 13.0615 9.67407 12.974C9.55833 12.8649 9.42869 12.7594 9.33183 12.6352C9.19853 12.4623 9.13375 12.2547 9.17823 12.0383C9.22037 11.8305 9.36679 11.6255 9.56784 11.5441C9.76859 11.4572 9.99343 11.4505 10.1904 11.5523C10.2889 11.6033 10.3744 11.6746 10.4354 11.7614C10.59 11.9106 10.7498 12.0538 10.907 12.2001C11.1885 12.4578 11.2186 12.9065 10.9612 13.1936C10.7092 13.4748 10.2521 13.5082 9.97035 13.2449Z" fill="#F6E7C6"/>
<path d="M13.3894 12.9147C13.1615 12.7104 12.9634 12.4847 12.7785 12.2443C12.7726 12.239 12.7693 12.2307 12.7634 12.2254C12.7542 12.2118 12.7451 12.1983 12.7332 12.1876C12.7395 12.1986 12.7483 12.2065 12.7546 12.2175C12.6571 12.082 12.5569 11.9495 12.4568 11.8171C12.4752 11.8442 12.4933 11.8657 12.5117 11.8929C12.4811 11.8495 12.445 11.8065 12.4145 11.7631C12.4328 11.7902 12.4509 11.8118 12.4693 11.8389C12.2628 11.5631 12.067 11.2754 11.8714 10.9933C11.7369 10.7979 11.6023 10.6026 11.4622 10.4076C11.2725 10.1308 11.0439 9.8618 10.9281 9.5444C10.8289 9.27395 10.9423 8.98066 11.1432 8.79235C11.1458 8.78939 11.1485 8.78643 11.1511 8.78347C11.344 8.60404 11.6879 8.5599 11.9204 8.69358C11.9958 8.7345 12.06 8.77605 12.1251 8.83442C12.2346 8.9326 12.3063 9.061 12.3361 9.1945C12.5773 9.53883 12.8076 9.88939 13.0488 10.2337C13.2168 10.4751 13.3874 10.7135 13.5554 10.9548C13.5613 10.9601 13.5647 10.9684 13.5676 10.971C13.5706 10.9737 13.5735 10.9763 13.5768 10.9846C13.586 10.9982 13.5922 11.0091 13.604 11.0197C13.6828 11.1224 13.759 11.228 13.8321 11.331C13.8443 11.3472 13.8565 11.3634 13.8686 11.3797C13.8716 11.3823 13.8745 11.385 13.8745 11.385C13.8775 11.3876 13.8804 11.3903 13.8834 11.3929C13.9714 11.5092 14.0646 11.6195 14.1635 11.7295C14.2168 11.7773 14.2675 11.828 14.3207 11.8758C14.6049 12.1305 14.6297 12.5852 14.375 12.8693C14.1282 13.1446 13.6792 13.1691 13.3894 12.9147Z" fill="#F6E7C6"/>
<path d="M13.8428 11.3192C13.8424 11.3135 13.8398 11.3165 13.8428 11.3192C13.8428 11.3192 13.8487 11.3245 13.8516 11.3271C13.8487 11.3245 13.8457 11.3218 13.8428 11.3192Z" fill="#F6E7C6"/>
<path d="M12.7753 12.236C12.7782 12.2387 12.7812 12.2413 12.7812 12.2413C12.7871 12.2466 12.7904 12.2549 12.7933 12.2575C12.7874 12.2522 12.7812 12.2413 12.7753 12.236Z" fill="#F6E7C6"/>
</g>
<defs>
<filter id="filter0_d_279_4697" x="0.36146" y="0.356689" width="23.5721" height="45.543" filterUnits="userSpaceOnUse" color-interpolation-filters="sRGB">
<feFlood flood-opacity="0" result="BackgroundImageFix"/>
<feColorMatrix in="SourceAlpha" type="matrix" values="0 0 0 0 0 0 0 0 0 0 0 0 0 0 0 0 0 0 127 0" result="hardAlpha"/>
<feOffset/>
<feGaussianBlur stdDeviation="2"/>
<feComposite in2="hardAlpha" operator="out"/>
<feColorMatrix type="matrix" values="0 0 0 0 0.964706 0 0 0 0 0.905882 0 0 0 0 0.776471 0 0 0 1 0"/>
<feBlend mode="normal" in2="BackgroundImageFix" result="effect1_dropShadow_279_4697"/>
<feBlend mode="normal" in="SourceGraphic" in2="effect1_dropShadow_279_4697" result="shape"/>
</filter>
</defs>
</svg>
