<svg width="346" height="6" viewBox="0 0 346 6" fill="none" xmlns="http://www.w3.org/2000/svg">
<path fill-rule="evenodd" clip-rule="evenodd" d="M10.6614 3.53338C8.94287 4.07559 6.95876 4.61519 5.05005 4.74993C3.41865 4.86493 1.84285 4.68631 0.553045 3.92634C0.371228 3.81933 0.143544 3.89289 0.0452159 4.09092C-0.0532621 4.28878 0.0144877 4.53657 0.196305 4.64374C1.60333 5.47255 3.31897 5.68934 5.09847 5.56374C7.0415 5.42672 9.06143 4.88352 10.8144 4.33348C11.0178 4.7819 11.439 5.19997 12.181 5.50843C13.3206 5.9823 14.8766 5.97642 16.5158 5.7094C18.8932 5.32231 21.4506 4.39922 23.0949 3.74331C23.1624 3.71656 23.2628 3.67399 23.3857 3.61788C23.4232 3.70792 23.4652 3.79666 23.5116 3.88376C23.9148 4.64292 24.6283 5.25674 25.3553 5.47598C29.9659 6.86609 35.347 5.20046 39.7283 3.84494C39.9261 3.78344 40.0416 3.55769 39.9861 3.34123C39.9291 3.12477 39.7223 2.999 39.5229 3.0605C35.2646 4.37818 30.0364 6.04069 25.5546 4.6899C25.003 4.52351 24.4664 4.05178 24.1607 3.47564C24.1262 3.41137 24.0962 3.34563 24.0677 3.27891C24.6718 2.95316 25.3823 2.49904 25.7645 2.01294C26.1572 1.51461 26.2546 0.982676 25.9129 0.480266C25.6191 0.0507708 25.1739 0.0142312 24.7107 0.23689C24.2116 0.475372 23.6975 1.03291 23.5311 1.29455C23.2193 1.78326 23.1204 2.31341 23.1774 2.83033C23.0305 2.89786 22.9112 2.9481 22.8376 2.97746C21.2292 3.61885 18.7295 4.52417 16.4049 4.90278C14.9091 5.14648 13.4883 5.17893 12.4484 4.74667C12.0048 4.56218 11.7118 4.34686 11.5528 4.09696C11.8666 3.99485 12.1693 3.89436 12.4584 3.79845C13.0302 3.60874 14.2208 3.29474 15.0714 2.73507C15.7479 2.29008 16.2066 1.68474 16.1799 0.925909C16.1662 0.536052 15.9589 0.275871 15.629 0.130042C15.136 -0.0877236 14.2835 0.0176497 13.966 0.0910537C13.0031 0.313223 11.7179 1.2329 11.0821 2.2692C10.8283 2.68271 10.6774 3.1153 10.6614 3.53338ZM11.4523 3.27858C11.7244 3.18952 11.9873 3.10209 12.2399 3.01824C12.7736 2.8411 13.8894 2.55971 14.6837 2.03707C15.1043 1.76042 15.4477 1.42897 15.431 0.957061C15.4297 0.920359 15.3962 0.909923 15.3667 0.894916C15.321 0.871916 15.2687 0.856089 15.2129 0.843692C14.8357 0.759848 14.3289 0.840915 14.1214 0.888872C13.3135 1.07532 12.2388 1.85259 11.7053 2.72218C11.5926 2.90585 11.5028 3.09295 11.4523 3.27858ZM23.9178 2.45483C24.2701 2.25762 24.6388 2.01913 24.9296 1.75961C25.084 1.62177 25.2144 1.48003 25.2968 1.33289C25.3658 1.21121 25.3927 1.08657 25.3103 0.966191C25.2773 0.917418 25.2279 0.916446 25.1769 0.92558C25.123 0.935368 25.0675 0.956241 25.012 0.983156C24.6463 1.15835 24.2686 1.56762 24.1472 1.75961C24.0048 1.98227 23.9343 2.21782 23.9178 2.45483Z" fill="#F6E7C6"/>
<path fill-rule="evenodd" clip-rule="evenodd" d="M48.6614 3.53338C46.9429 4.07559 44.9588 4.61519 43.0501 4.74993C41.4186 4.86493 39.8429 4.68631 38.553 3.92634C38.3712 3.81933 38.1435 3.89289 38.0452 4.09092C37.9467 4.28878 38.0145 4.53657 38.1963 4.64374C39.6033 5.47255 41.319 5.68934 43.0985 5.56374C45.0415 5.42672 47.0614 4.88352 48.8144 4.33348C49.0178 4.7819 49.439 5.19997 50.181 5.50843C51.3206 5.9823 52.8766 5.97642 54.5158 5.7094C56.8932 5.32231 59.4506 4.39922 61.0949 3.74331C61.1624 3.71656 61.2628 3.67399 61.3857 3.61788C61.4232 3.70792 61.4652 3.79666 61.5116 3.88376C61.9148 4.64292 62.6283 5.25674 63.3553 5.47598C67.9659 6.86609 73.347 5.20046 77.7283 3.84494C77.9261 3.78344 78.0416 3.55769 77.9861 3.34123C77.9291 3.12477 77.7223 2.999 77.5229 3.0605C73.2646 4.37818 68.0364 6.04069 63.5546 4.6899C63.003 4.52351 62.4664 4.05178 62.1607 3.47564C62.1262 3.41137 62.0962 3.34563 62.0677 3.27891C62.6718 2.95316 63.3823 2.49904 63.7645 2.01294C64.1572 1.51461 64.2546 0.982676 63.9129 0.480266C63.6191 0.0507708 63.1739 0.0142312 62.7107 0.23689C62.2116 0.475372 61.6975 1.03291 61.5311 1.29455C61.2193 1.78326 61.1204 2.31341 61.1774 2.83033C61.0305 2.89786 60.9112 2.9481 60.8376 2.97746C59.2292 3.61885 56.7295 4.52417 54.4049 4.90278C52.9091 5.14648 51.4883 5.17893 50.4484 4.74667C50.0048 4.56218 49.7118 4.34686 49.5528 4.09696C49.8666 3.99485 50.1693 3.89436 50.4584 3.79845C51.0302 3.60874 52.2208 3.29474 53.0714 2.73507C53.7479 2.29008 54.2066 1.68474 54.1799 0.925909C54.1662 0.536052 53.9589 0.275871 53.629 0.130042C53.136 -0.0877236 52.2835 0.0176497 51.966 0.0910537C51.0031 0.313223 49.7179 1.2329 49.0821 2.2692C48.8283 2.68271 48.6774 3.1153 48.6614 3.53338ZM49.4523 3.27858C49.7244 3.18952 49.9873 3.10209 50.2399 3.01824C50.7736 2.8411 51.8894 2.55971 52.6837 2.03707C53.1043 1.76042 53.4477 1.42897 53.431 0.957061C53.4297 0.920359 53.3962 0.909923 53.3667 0.894916C53.321 0.871916 53.2687 0.856089 53.2129 0.843692C52.8357 0.759848 52.3289 0.840915 52.1214 0.888872C51.3135 1.07532 50.2388 1.85259 49.7053 2.72218C49.5926 2.90585 49.5028 3.09295 49.4523 3.27858ZM61.9178 2.45483C62.2701 2.25762 62.6388 2.01913 62.9296 1.75961C63.084 1.62177 63.2144 1.48003 63.2968 1.33289C63.3658 1.21121 63.3927 1.08657 63.3103 0.966191C63.2773 0.917418 63.2279 0.916446 63.1769 0.92558C63.123 0.935368 63.0675 0.956241 63.012 0.983156C62.6463 1.15835 62.2686 1.56762 62.1472 1.75961C62.0048 1.98227 61.9343 2.21782 61.9178 2.45483Z" fill="#F6E7C6"/>
<path fill-rule="evenodd" clip-rule="evenodd" d="M86.6614 3.53338C84.9429 4.07559 82.9588 4.61519 81.0501 4.74993C79.4186 4.86493 77.8429 4.68631 76.553 3.92634C76.3712 3.81933 76.1435 3.89289 76.0452 4.09092C75.9467 4.28878 76.0145 4.53657 76.1963 4.64374C77.6033 5.47255 79.319 5.68934 81.0985 5.56374C83.0415 5.42672 85.0614 4.88352 86.8144 4.33348C87.0178 4.7819 87.439 5.19997 88.181 5.50843C89.3206 5.9823 90.8766 5.97642 92.5158 5.7094C94.8932 5.32231 97.4506 4.39922 99.0949 3.74331C99.1624 3.71656 99.2628 3.67399 99.3857 3.61788C99.4232 3.70792 99.4652 3.79666 99.5116 3.88376C99.9148 4.64292 100.628 5.25674 101.355 5.47598C105.966 6.86609 111.347 5.20046 115.728 3.84494C115.926 3.78344 116.042 3.55769 115.986 3.34123C115.929 3.12477 115.722 2.999 115.523 3.0605C111.265 4.37818 106.036 6.04069 101.555 4.6899C101.003 4.52351 100.466 4.05178 100.161 3.47564C100.126 3.41137 100.096 3.34563 100.068 3.27891C100.672 2.95316 101.382 2.49904 101.764 2.01294C102.157 1.51461 102.255 0.982676 101.913 0.480266C101.619 0.0507708 101.174 0.0142312 100.711 0.23689C100.212 0.475372 99.6975 1.03291 99.5311 1.29455C99.2193 1.78326 99.1204 2.31341 99.1774 2.83033C99.0305 2.89786 98.9112 2.9481 98.8376 2.97746C97.2292 3.61885 94.7295 4.52417 92.4049 4.90278C90.9091 5.14648 89.4883 5.17893 88.4484 4.74667C88.0048 4.56218 87.7118 4.34686 87.5528 4.09696C87.8666 3.99485 88.1693 3.89436 88.4584 3.79845C89.0302 3.60874 90.2208 3.29474 91.0714 2.73507C91.7479 2.29008 92.2066 1.68474 92.1799 0.925909C92.1662 0.536052 91.9589 0.275871 91.629 0.130042C91.136 -0.0877236 90.2835 0.0176497 89.966 0.0910537C89.0031 0.313223 87.7179 1.2329 87.0821 2.2692C86.8283 2.68271 86.6774 3.1153 86.6614 3.53338ZM87.4523 3.27858C87.7244 3.18952 87.9873 3.10209 88.2399 3.01824C88.7736 2.8411 89.8894 2.55971 90.6837 2.03707C91.1043 1.76042 91.4477 1.42897 91.431 0.957061C91.4297 0.920359 91.3962 0.909923 91.3667 0.894916C91.321 0.871916 91.2687 0.856089 91.2129 0.843692C90.8357 0.759848 90.3289 0.840915 90.1214 0.888872C89.3135 1.07532 88.2388 1.85259 87.7053 2.72218C87.5926 2.90585 87.5028 3.09295 87.4523 3.27858ZM99.9178 2.45483C100.27 2.25762 100.639 2.01913 100.93 1.75961C101.084 1.62177 101.214 1.48003 101.297 1.33289C101.366 1.21121 101.393 1.08657 101.31 0.966191C101.277 0.917418 101.228 0.916446 101.177 0.92558C101.123 0.935368 101.067 0.956241 101.012 0.983156C100.646 1.15835 100.269 1.56762 100.147 1.75961C100.005 1.98227 99.9343 2.21782 99.9178 2.45483Z" fill="#F6E7C6"/>
<path fill-rule="evenodd" clip-rule="evenodd" d="M124.661 3.53338C122.943 4.07559 120.959 4.61519 119.05 4.74993C117.419 4.86493 115.843 4.68631 114.553 3.92634C114.371 3.81933 114.144 3.89289 114.045 4.09092C113.947 4.28878 114.014 4.53657 114.196 4.64374C115.603 5.47255 117.319 5.68934 119.098 5.56374C121.041 5.42672 123.061 4.88352 124.814 4.33348C125.018 4.7819 125.439 5.19997 126.181 5.50843C127.321 5.9823 128.877 5.97642 130.516 5.7094C132.893 5.32231 135.451 4.39922 137.095 3.74331C137.162 3.71656 137.263 3.67399 137.386 3.61788C137.423 3.70792 137.465 3.79666 137.512 3.88376C137.915 4.64292 138.628 5.25674 139.355 5.47598C143.966 6.86609 149.347 5.20046 153.728 3.84494C153.926 3.78344 154.042 3.55769 153.986 3.34123C153.929 3.12477 153.722 2.999 153.523 3.0605C149.265 4.37818 144.036 6.04069 139.555 4.6899C139.003 4.52351 138.466 4.05178 138.161 3.47564C138.126 3.41137 138.096 3.34563 138.068 3.27891C138.672 2.95316 139.382 2.49904 139.764 2.01294C140.157 1.51461 140.255 0.982676 139.913 0.480266C139.619 0.0507708 139.174 0.0142312 138.711 0.23689C138.212 0.475372 137.697 1.03291 137.531 1.29455C137.219 1.78326 137.12 2.31341 137.177 2.83033C137.03 2.89786 136.911 2.9481 136.838 2.97746C135.229 3.61885 132.73 4.52417 130.405 4.90278C128.909 5.14648 127.488 5.17893 126.448 4.74667C126.005 4.56218 125.712 4.34686 125.553 4.09696C125.867 3.99485 126.169 3.89436 126.458 3.79845C127.03 3.60874 128.221 3.29474 129.071 2.73507C129.748 2.29008 130.207 1.68474 130.18 0.925909C130.166 0.536052 129.959 0.275871 129.629 0.130042C129.136 -0.0877236 128.283 0.0176497 127.966 0.0910537C127.003 0.313223 125.718 1.2329 125.082 2.2692C124.828 2.68271 124.677 3.1153 124.661 3.53338ZM125.452 3.27858C125.724 3.18952 125.987 3.10209 126.24 3.01824C126.774 2.8411 127.889 2.55971 128.684 2.03707C129.104 1.76042 129.448 1.42897 129.431 0.957061C129.43 0.920359 129.396 0.909923 129.367 0.894916C129.321 0.871916 129.269 0.856089 129.213 0.843692C128.836 0.759848 128.329 0.840915 128.121 0.888872C127.314 1.07532 126.239 1.85259 125.705 2.72218C125.593 2.90585 125.503 3.09295 125.452 3.27858ZM137.918 2.45483C138.27 2.25762 138.639 2.01913 138.93 1.75961C139.084 1.62177 139.214 1.48003 139.297 1.33289C139.366 1.21121 139.393 1.08657 139.31 0.966191C139.277 0.917418 139.228 0.916446 139.177 0.92558C139.123 0.935368 139.067 0.956241 139.012 0.983156C138.646 1.15835 138.269 1.56762 138.147 1.75961C138.005 1.98227 137.934 2.21782 137.918 2.45483Z" fill="#F6E7C6"/>
<path fill-rule="evenodd" clip-rule="evenodd" d="M162.661 3.53338C160.943 4.07559 158.959 4.61519 157.05 4.74993C155.419 4.86493 153.843 4.68631 152.553 3.92634C152.371 3.81933 152.144 3.89289 152.045 4.09092C151.947 4.28878 152.014 4.53657 152.196 4.64374C153.603 5.47255 155.319 5.68934 157.098 5.56374C159.041 5.42672 161.061 4.88352 162.814 4.33348C163.018 4.7819 163.439 5.19997 164.181 5.50843C165.321 5.9823 166.877 5.97642 168.516 5.7094C170.893 5.32231 173.451 4.39922 175.095 3.74331C175.162 3.71656 175.263 3.67399 175.386 3.61788C175.423 3.70792 175.465 3.79666 175.512 3.88376C175.915 4.64292 176.628 5.25674 177.355 5.47598C181.966 6.86609 187.347 5.20046 191.728 3.84494C191.926 3.78344 192.042 3.55769 191.986 3.34123C191.929 3.12477 191.722 2.999 191.523 3.0605C187.265 4.37818 182.036 6.04069 177.555 4.6899C177.003 4.52351 176.466 4.05178 176.161 3.47564C176.126 3.41137 176.096 3.34563 176.068 3.27891C176.672 2.95316 177.382 2.49904 177.764 2.01294C178.157 1.51461 178.255 0.982676 177.913 0.480266C177.619 0.0507708 177.174 0.0142312 176.711 0.23689C176.212 0.475372 175.697 1.03291 175.531 1.29455C175.219 1.78326 175.12 2.31341 175.177 2.83033C175.03 2.89786 174.911 2.9481 174.838 2.97746C173.229 3.61885 170.73 4.52417 168.405 4.90278C166.909 5.14648 165.488 5.17893 164.448 4.74667C164.005 4.56218 163.712 4.34686 163.553 4.09696C163.867 3.99485 164.169 3.89436 164.458 3.79845C165.03 3.60874 166.221 3.29474 167.071 2.73507C167.748 2.29008 168.207 1.68474 168.18 0.925909C168.166 0.536052 167.959 0.275871 167.629 0.130042C167.136 -0.0877236 166.283 0.0176497 165.966 0.0910537C165.003 0.313223 163.718 1.2329 163.082 2.2692C162.828 2.68271 162.677 3.1153 162.661 3.53338ZM163.452 3.27858C163.724 3.18952 163.987 3.10209 164.24 3.01824C164.774 2.8411 165.889 2.55971 166.684 2.03707C167.104 1.76042 167.448 1.42897 167.431 0.957061C167.43 0.920359 167.396 0.909923 167.367 0.894916C167.321 0.871916 167.269 0.856089 167.213 0.843692C166.836 0.759848 166.329 0.840915 166.121 0.888872C165.314 1.07532 164.239 1.85259 163.705 2.72218C163.593 2.90585 163.503 3.09295 163.452 3.27858ZM175.918 2.45483C176.27 2.25762 176.639 2.01913 176.93 1.75961C177.084 1.62177 177.214 1.48003 177.297 1.33289C177.366 1.21121 177.393 1.08657 177.31 0.966191C177.277 0.917418 177.228 0.916446 177.177 0.92558C177.123 0.935368 177.067 0.956241 177.012 0.983156C176.646 1.15835 176.269 1.56762 176.147 1.75961C176.005 1.98227 175.934 2.21782 175.918 2.45483Z" fill="#F6E7C6"/>
<path fill-rule="evenodd" clip-rule="evenodd" d="M200.661 3.53338C198.943 4.07559 196.959 4.61519 195.05 4.74993C193.419 4.86493 191.843 4.68631 190.553 3.92634C190.371 3.81933 190.144 3.89289 190.045 4.09092C189.947 4.28878 190.014 4.53657 190.196 4.64374C191.603 5.47255 193.319 5.68934 195.098 5.56374C197.041 5.42672 199.061 4.88352 200.814 4.33348C201.018 4.7819 201.439 5.19997 202.181 5.50843C203.321 5.9823 204.877 5.97642 206.516 5.7094C208.893 5.32231 211.451 4.39922 213.095 3.74331C213.162 3.71656 213.263 3.67399 213.386 3.61788C213.423 3.70792 213.465 3.79666 213.512 3.88376C213.915 4.64292 214.628 5.25674 215.355 5.47598C219.966 6.86609 225.347 5.20046 229.728 3.84494C229.926 3.78344 230.042 3.55769 229.986 3.34123C229.929 3.12477 229.722 2.999 229.523 3.0605C225.265 4.37818 220.036 6.04069 215.555 4.6899C215.003 4.52351 214.466 4.05178 214.161 3.47564C214.126 3.41137 214.096 3.34563 214.068 3.27891C214.672 2.95316 215.382 2.49904 215.764 2.01294C216.157 1.51461 216.255 0.982676 215.913 0.480266C215.619 0.0507708 215.174 0.0142312 214.711 0.23689C214.212 0.475372 213.697 1.03291 213.531 1.29455C213.219 1.78326 213.12 2.31341 213.177 2.83033C213.03 2.89786 212.911 2.9481 212.838 2.97746C211.229 3.61885 208.73 4.52417 206.405 4.90278C204.909 5.14648 203.488 5.17893 202.448 4.74667C202.005 4.56218 201.712 4.34686 201.553 4.09696C201.867 3.99485 202.169 3.89436 202.458 3.79845C203.03 3.60874 204.221 3.29474 205.071 2.73507C205.748 2.29008 206.207 1.68474 206.18 0.925909C206.166 0.536052 205.959 0.275871 205.629 0.130042C205.136 -0.0877236 204.283 0.0176497 203.966 0.0910537C203.003 0.313223 201.718 1.2329 201.082 2.2692C200.828 2.68271 200.677 3.1153 200.661 3.53338ZM201.452 3.27858C201.724 3.18952 201.987 3.10209 202.24 3.01824C202.774 2.8411 203.889 2.55971 204.684 2.03707C205.104 1.76042 205.448 1.42897 205.431 0.957061C205.43 0.920359 205.396 0.909923 205.367 0.894916C205.321 0.871916 205.269 0.856089 205.213 0.843692C204.836 0.759848 204.329 0.840915 204.121 0.888872C203.314 1.07532 202.239 1.85259 201.705 2.72218C201.593 2.90585 201.503 3.09295 201.452 3.27858ZM213.918 2.45483C214.27 2.25762 214.639 2.01913 214.93 1.75961C215.084 1.62177 215.214 1.48003 215.297 1.33289C215.366 1.21121 215.393 1.08657 215.31 0.966191C215.277 0.917418 215.228 0.916446 215.177 0.92558C215.123 0.935368 215.067 0.956241 215.012 0.983156C214.646 1.15835 214.269 1.56762 214.147 1.75961C214.005 1.98227 213.934 2.21782 213.918 2.45483Z" fill="#F6E7C6"/>
<path fill-rule="evenodd" clip-rule="evenodd" d="M238.661 3.53338C236.943 4.07559 234.959 4.61519 233.05 4.74993C231.419 4.86493 229.843 4.68631 228.553 3.92634C228.371 3.81933 228.144 3.89289 228.045 4.09092C227.947 4.28878 228.014 4.53657 228.196 4.64374C229.603 5.47255 231.319 5.68934 233.098 5.56374C235.041 5.42672 237.061 4.88352 238.814 4.33348C239.018 4.7819 239.439 5.19997 240.181 5.50843C241.321 5.9823 242.877 5.97642 244.516 5.7094C246.893 5.32231 249.451 4.39922 251.095 3.74331C251.162 3.71656 251.263 3.67399 251.386 3.61788C251.423 3.70792 251.465 3.79666 251.512 3.88376C251.915 4.64292 252.628 5.25674 253.355 5.47598C257.966 6.86609 263.347 5.20046 267.728 3.84494C267.926 3.78344 268.042 3.55769 267.986 3.34123C267.929 3.12477 267.722 2.999 267.523 3.0605C263.265 4.37818 258.036 6.04069 253.555 4.6899C253.003 4.52351 252.466 4.05178 252.161 3.47564C252.126 3.41137 252.096 3.34563 252.068 3.27891C252.672 2.95316 253.382 2.49904 253.764 2.01294C254.157 1.51461 254.255 0.982676 253.913 0.480266C253.619 0.0507708 253.174 0.0142312 252.711 0.23689C252.212 0.475372 251.697 1.03291 251.531 1.29455C251.219 1.78326 251.12 2.31341 251.177 2.83033C251.03 2.89786 250.911 2.9481 250.838 2.97746C249.229 3.61885 246.73 4.52417 244.405 4.90278C242.909 5.14648 241.488 5.17893 240.448 4.74667C240.005 4.56218 239.712 4.34686 239.553 4.09696C239.867 3.99485 240.169 3.89436 240.458 3.79845C241.03 3.60874 242.221 3.29474 243.071 2.73507C243.748 2.29008 244.207 1.68474 244.18 0.925909C244.166 0.536052 243.959 0.275871 243.629 0.130042C243.136 -0.0877236 242.283 0.0176497 241.966 0.0910537C241.003 0.313223 239.718 1.2329 239.082 2.2692C238.828 2.68271 238.677 3.1153 238.661 3.53338ZM239.452 3.27858C239.724 3.18952 239.987 3.10209 240.24 3.01824C240.774 2.8411 241.889 2.55971 242.684 2.03707C243.104 1.76042 243.448 1.42897 243.431 0.957061C243.43 0.920359 243.396 0.909923 243.367 0.894916C243.321 0.871916 243.269 0.856089 243.213 0.843692C242.836 0.759848 242.329 0.840915 242.121 0.888872C241.314 1.07532 240.239 1.85259 239.705 2.72218C239.593 2.90585 239.503 3.09295 239.452 3.27858ZM251.918 2.45483C252.27 2.25762 252.639 2.01913 252.93 1.75961C253.084 1.62177 253.214 1.48003 253.297 1.33289C253.366 1.21121 253.393 1.08657 253.31 0.966191C253.277 0.917418 253.228 0.916446 253.177 0.92558C253.123 0.935368 253.067 0.956241 253.012 0.983156C252.646 1.15835 252.269 1.56762 252.147 1.75961C252.005 1.98227 251.934 2.21782 251.918 2.45483Z" fill="#F6E7C6"/>
<path fill-rule="evenodd" clip-rule="evenodd" d="M276.661 3.53338C274.943 4.07559 272.959 4.61519 271.05 4.74993C269.419 4.86493 267.843 4.68631 266.553 3.92634C266.371 3.81933 266.144 3.89289 266.045 4.09092C265.947 4.28878 266.014 4.53657 266.196 4.64374C267.603 5.47255 269.319 5.68934 271.098 5.56374C273.041 5.42672 275.061 4.88352 276.814 4.33348C277.018 4.7819 277.439 5.19997 278.181 5.50843C279.321 5.9823 280.877 5.97642 282.516 5.7094C284.893 5.32231 287.451 4.39922 289.095 3.74331C289.162 3.71656 289.263 3.67399 289.386 3.61788C289.423 3.70792 289.465 3.79666 289.512 3.88376C289.915 4.64292 290.628 5.25674 291.355 5.47598C295.966 6.86609 301.347 5.20046 305.728 3.84494C305.926 3.78344 306.042 3.55769 305.986 3.34123C305.929 3.12477 305.722 2.999 305.523 3.0605C301.265 4.37818 296.036 6.04069 291.555 4.6899C291.003 4.52351 290.466 4.05178 290.161 3.47564C290.126 3.41137 290.096 3.34563 290.068 3.27891C290.672 2.95316 291.382 2.49904 291.764 2.01294C292.157 1.51461 292.255 0.982676 291.913 0.480266C291.619 0.0507708 291.174 0.0142312 290.711 0.23689C290.212 0.475372 289.697 1.03291 289.531 1.29455C289.219 1.78326 289.12 2.31341 289.177 2.83033C289.03 2.89786 288.911 2.9481 288.838 2.97746C287.229 3.61885 284.73 4.52417 282.405 4.90278C280.909 5.14648 279.488 5.17893 278.448 4.74667C278.005 4.56218 277.712 4.34686 277.553 4.09696C277.867 3.99485 278.169 3.89436 278.458 3.79845C279.03 3.60874 280.221 3.29474 281.071 2.73507C281.748 2.29008 282.207 1.68474 282.18 0.925909C282.166 0.536052 281.959 0.275871 281.629 0.130042C281.136 -0.0877236 280.283 0.0176497 279.966 0.0910537C279.003 0.313223 277.718 1.2329 277.082 2.2692C276.828 2.68271 276.677 3.1153 276.661 3.53338ZM277.452 3.27858C277.724 3.18952 277.987 3.10209 278.24 3.01824C278.774 2.8411 279.889 2.55971 280.684 2.03707C281.104 1.76042 281.448 1.42897 281.431 0.957061C281.43 0.920359 281.396 0.909923 281.367 0.894916C281.321 0.871916 281.269 0.856089 281.213 0.843692C280.836 0.759848 280.329 0.840915 280.121 0.888872C279.314 1.07532 278.239 1.85259 277.705 2.72218C277.593 2.90585 277.503 3.09295 277.452 3.27858ZM289.918 2.45483C290.27 2.25762 290.639 2.01913 290.93 1.75961C291.084 1.62177 291.214 1.48003 291.297 1.33289C291.366 1.21121 291.393 1.08657 291.31 0.966191C291.277 0.917418 291.228 0.916446 291.177 0.92558C291.123 0.935368 291.067 0.956241 291.012 0.983156C290.646 1.15835 290.269 1.56762 290.147 1.75961C290.005 1.98227 289.934 2.21782 289.918 2.45483Z" fill="#F6E7C6"/>
<path fill-rule="evenodd" clip-rule="evenodd" d="M314.661 3.53338C312.943 4.07559 310.959 4.61519 309.05 4.74993C307.419 4.86493 305.843 4.68631 304.553 3.92634C304.371 3.81933 304.144 3.89289 304.045 4.09092C303.947 4.28878 304.014 4.53657 304.196 4.64374C305.603 5.47255 307.319 5.68934 309.098 5.56374C311.041 5.42672 313.061 4.88352 314.814 4.33348C315.018 4.7819 315.439 5.19997 316.181 5.50843C317.321 5.9823 318.877 5.97642 320.516 5.7094C322.893 5.32231 325.451 4.39922 327.095 3.74331C327.162 3.71656 327.263 3.67399 327.386 3.61788C327.423 3.70792 327.465 3.79666 327.512 3.88376C327.915 4.64292 328.628 5.25674 329.355 5.47598C333.966 6.86609 339.347 5.20046 343.728 3.84494C343.926 3.78344 344.042 3.55769 343.986 3.34123C343.929 3.12477 343.722 2.999 343.523 3.0605C339.265 4.37818 334.036 6.04069 329.555 4.6899C329.003 4.52351 328.466 4.05178 328.161 3.47564C328.126 3.41137 328.096 3.34563 328.068 3.27891C328.672 2.95316 329.382 2.49904 329.764 2.01294C330.157 1.51461 330.255 0.982676 329.913 0.480266C329.619 0.0507708 329.174 0.0142312 328.711 0.23689C328.212 0.475372 327.697 1.03291 327.531 1.29455C327.219 1.78326 327.12 2.31341 327.177 2.83033C327.03 2.89786 326.911 2.9481 326.838 2.97746C325.229 3.61885 322.73 4.52417 320.405 4.90278C318.909 5.14648 317.488 5.17893 316.448 4.74667C316.005 4.56218 315.712 4.34686 315.553 4.09696C315.867 3.99485 316.169 3.89436 316.458 3.79845C317.03 3.60874 318.221 3.29474 319.071 2.73507C319.748 2.29008 320.207 1.68474 320.18 0.925909C320.166 0.536052 319.959 0.275871 319.629 0.130042C319.136 -0.0877236 318.283 0.0176497 317.966 0.0910537C317.003 0.313223 315.718 1.2329 315.082 2.2692C314.828 2.68271 314.677 3.1153 314.661 3.53338ZM315.452 3.27858C315.724 3.18952 315.987 3.10209 316.24 3.01824C316.774 2.8411 317.889 2.55971 318.684 2.03707C319.104 1.76042 319.448 1.42897 319.431 0.957061C319.43 0.920359 319.396 0.909923 319.367 0.894916C319.321 0.871916 319.269 0.856089 319.213 0.843692C318.836 0.759848 318.329 0.840915 318.121 0.888872C317.314 1.07532 316.239 1.85259 315.705 2.72218C315.593 2.90585 315.503 3.09295 315.452 3.27858ZM327.918 2.45483C328.27 2.25762 328.639 2.01913 328.93 1.75961C329.084 1.62177 329.214 1.48003 329.297 1.33289C329.366 1.21121 329.393 1.08657 329.31 0.966191C329.277 0.917418 329.228 0.916446 329.177 0.92558C329.123 0.935368 329.067 0.956241 329.012 0.983156C328.646 1.15835 328.269 1.56762 328.147 1.75961C328.005 1.98227 327.934 2.21782 327.918 2.45483Z" fill="#F6E7C6"/>
</svg>
