<svg width="49" height="49" viewBox="0 0 49 49" fill="none" xmlns="http://www.w3.org/2000/svg">
<path d="M12.3862 45.08L32.8251 9.31977C34.0893 7.11477 36.3923 5.88977 38.7639 5.88977C39.9301 5.88977 41.1159 6.18374 42.1939 6.81094C44.4087 8.08494 45.6435 10.4174 45.6239 12.7988C45.6141 13.9552 45.3201 15.1116 44.7027 16.1798L27.9437 45.08" stroke="#F6E7C6" stroke-width="4" stroke-miterlimit="10" stroke-linecap="round" stroke-linejoin="round"/>
<path d="M33.7659 15.5231C33.7659 15.5231 34.4078 17.0254 35.8219 17.8418C37.2361 18.6581 38.858 18.4631 38.858 18.4631L40.818 15.0684C41.6294 13.6621 41.1482 11.8638 39.7419 11.0523C38.3356 10.2409 36.5373 10.7221 35.7259 12.1284L33.7659 15.5231Z" stroke="white" stroke-width="2" stroke-miterlimit="10" stroke-linecap="round" stroke-linejoin="round"/>
<path d="M28.7189 34.0893L25.3242 32.1293" stroke="white" stroke-width="2" stroke-miterlimit="10" stroke-linecap="round" stroke-linejoin="round"/>
<path d="M26.7589 37.4839L23.3642 35.5239" stroke="white" stroke-width="2" stroke-miterlimit="10" stroke-linecap="round" stroke-linejoin="round"/>
<path d="M27.9849 6.26904C19.8852 2.13442 9.71768 3.45643 2.94 10.2341" stroke="#F6E7C6" stroke-width="2" stroke-miterlimit="10" stroke-linecap="round" stroke-linejoin="round"/>
<path d="M27.9437 2.93994V6.85994L24.0237 7.83994" stroke="#F6E7C6" stroke-width="2" stroke-miterlimit="10" stroke-linecap="round" stroke-linejoin="round"/>
</svg>
