<svg width="40" height="6" viewBox="0 0 40 6" fill="none" xmlns="http://www.w3.org/2000/svg">
<path fill-rule="evenodd" clip-rule="evenodd" d="M10.6614 3.53338C8.94287 4.07559 6.95876 4.61519 5.05005 4.74993C3.41865 4.86493 1.84285 4.68631 0.553045 3.92634C0.371228 3.81933 0.143544 3.89289 0.0452159 4.09092C-0.0532621 4.28878 0.0144877 4.53657 0.196305 4.64374C1.60333 5.47255 3.31897 5.68934 5.09847 5.56374C7.0415 5.42672 9.06143 4.88352 10.8144 4.33348C11.0178 4.7819 11.439 5.19997 12.181 5.50843C13.3206 5.9823 14.8766 5.97642 16.5158 5.7094C18.8932 5.32231 21.4506 4.39922 23.0949 3.74331C23.1624 3.71656 23.2628 3.67399 23.3857 3.61788C23.4232 3.70792 23.4652 3.79666 23.5116 3.88376C23.9148 4.64292 24.6283 5.25674 25.3553 5.47598C29.9659 6.86609 35.347 5.20046 39.7283 3.84494C39.9261 3.78344 40.0416 3.55769 39.9861 3.34123C39.9291 3.12477 39.7223 2.999 39.5229 3.0605C35.2646 4.37818 30.0364 6.04069 25.5546 4.6899C25.003 4.52351 24.4664 4.05178 24.1607 3.47564C24.1262 3.41137 24.0962 3.34563 24.0677 3.27891C24.6718 2.95316 25.3823 2.49904 25.7645 2.01294C26.1572 1.51461 26.2546 0.982676 25.9129 0.480266C25.6191 0.0507708 25.1739 0.0142312 24.7107 0.23689C24.2116 0.475372 23.6975 1.03291 23.5311 1.29455C23.2193 1.78326 23.1204 2.31341 23.1774 2.83033C23.0305 2.89786 22.9112 2.9481 22.8376 2.97746C21.2292 3.61885 18.7295 4.52417 16.4049 4.90278C14.9091 5.14648 13.4883 5.17893 12.4484 4.74667C12.0048 4.56218 11.7118 4.34686 11.5528 4.09696C11.8666 3.99485 12.1693 3.89436 12.4584 3.79845C13.0302 3.60874 14.2208 3.29474 15.0714 2.73507C15.7479 2.29008 16.2066 1.68474 16.1799 0.925909C16.1662 0.536052 15.9589 0.275871 15.629 0.130042C15.136 -0.0877236 14.2835 0.0176497 13.966 0.0910537C13.0031 0.313223 11.7179 1.2329 11.0821 2.2692C10.8283 2.68271 10.6774 3.1153 10.6614 3.53338ZM11.4523 3.27858C11.7244 3.18952 11.9873 3.10209 12.2399 3.01824C12.7736 2.8411 13.8894 2.55971 14.6837 2.03707C15.1043 1.76042 15.4477 1.42897 15.431 0.957061C15.4297 0.920359 15.3962 0.909923 15.3667 0.894916C15.321 0.871916 15.2687 0.856089 15.2129 0.843692C14.8357 0.759848 14.3289 0.840915 14.1214 0.888872C13.3135 1.07532 12.2388 1.85259 11.7053 2.72218C11.5926 2.90585 11.5028 3.09295 11.4523 3.27858ZM23.9178 2.45483C24.2701 2.25762 24.6388 2.01913 24.9296 1.75961C25.084 1.62177 25.2144 1.48003 25.2968 1.33289C25.3658 1.21121 25.3927 1.08657 25.3103 0.966191C25.2773 0.917418 25.2279 0.916446 25.1769 0.92558C25.123 0.935368 25.0675 0.956241 25.012 0.983156C24.6463 1.15835 24.2686 1.56762 24.1472 1.75961C24.0048 1.98227 23.9343 2.21782 23.9178 2.45483Z" fill="#F6E7C6"/>
</svg>
