<svg width="27" height="27" viewBox="0 0 27 27" fill="none" xmlns="http://www.w3.org/2000/svg">
<path d="M23.7038 18.9338L21.375 16.5488C20.8741 16.0726 20.2422 15.7571 19.5606 15.6429C18.879 15.5286 18.1788 15.6208 17.55 15.9075L16.5375 14.895C17.7306 13.3008 18.2755 11.3138 18.0625 9.33397C17.8495 7.35414 16.8943 5.52853 15.3894 4.22463C13.8844 2.92072 11.9414 2.23535 9.95138 2.30648C7.9614 2.37761 6.07225 3.19996 4.66422 4.60799C3.25619 6.01602 2.43384 7.90517 2.36271 9.89515C2.29158 11.8851 2.97695 13.8282 4.28085 15.3331C5.58476 16.8381 7.41037 17.7932 9.3902 18.0063C11.37 18.2193 13.357 17.6744 14.9513 16.4813L15.9525 17.4825C15.632 18.1121 15.5171 18.8264 15.6241 19.5248C15.731 20.2231 16.0545 20.8702 16.5488 21.375L18.9338 23.76C19.5666 24.3921 20.4244 24.7471 21.3188 24.7471C22.2131 24.7471 23.0709 24.3921 23.7038 23.76C24.0252 23.4457 24.2806 23.0703 24.455 22.6559C24.6294 22.2415 24.7192 21.7965 24.7192 21.3469C24.7192 20.8973 24.6294 20.4523 24.455 20.0379C24.2806 19.6235 24.0252 19.2481 23.7038 18.9338V18.9338ZM14.1638 14.1638C13.3765 14.949 12.3742 15.4833 11.2835 15.6992C10.1927 15.9151 9.06244 15.8029 8.03543 15.3767C7.00843 14.9506 6.13076 14.2296 5.51331 13.3049C4.89585 12.3802 4.56631 11.2932 4.56631 10.1813C4.56631 9.06936 4.89585 7.98239 5.51331 7.05767C6.13076 6.13295 7.00843 5.41198 8.03543 4.98581C9.06244 4.55965 10.1927 4.44743 11.2835 4.66332C12.3742 4.87921 13.3765 5.41353 14.1638 6.19878C14.6876 6.72129 15.1032 7.34201 15.3868 8.0254C15.6703 8.70878 15.8163 9.44139 15.8163 10.1813C15.8163 10.9212 15.6703 11.6538 15.3868 12.3372C15.1032 13.0205 14.6876 13.6413 14.1638 14.1638V14.1638ZM22.1175 22.1175C22.0129 22.223 21.8885 22.3067 21.7514 22.3638C21.6143 22.4209 21.4673 22.4503 21.3188 22.4503C21.1702 22.4503 21.0232 22.4209 20.8861 22.3638C20.749 22.3067 20.6246 22.223 20.52 22.1175L18.135 19.7325C18.0296 19.6279 17.9459 19.5035 17.8888 19.3664C17.8316 19.2293 17.8022 19.0823 17.8022 18.9338C17.8022 18.7853 17.8316 18.6382 17.8888 18.5011C17.9459 18.364 18.0296 18.2396 18.135 18.135C18.2396 18.0296 18.364 17.9459 18.5011 17.8888C18.6382 17.8317 18.7852 17.8023 18.9338 17.8023C19.0823 17.8023 19.2293 17.8317 19.3664 17.8888C19.5035 17.9459 19.6279 18.0296 19.7325 18.135L22.1175 20.52C22.2229 20.6246 22.3066 20.749 22.3638 20.8861C22.4209 21.0232 22.4503 21.1703 22.4503 21.3188C22.4503 21.4673 22.4209 21.6143 22.3638 21.7514C22.3066 21.8885 22.2229 22.0129 22.1175 22.1175V22.1175Z" fill="black"/>
</svg>
